REM MD5 0800a5cf0676c2d7a6e20e91438f3fe0
FILE "Winter Releases '98 (Europe).bin" BINARY
  TRACK 01 MODE2/2352
    INDEX 01 00:00:00
  TRACK 02 AUDIO
    INDEX 00 50:40:38
    INDEX 01 50:42:38
  TRACK 03 AUDIO
    INDEX 00 53:14:18
    INDEX 01 53:16:18
REM LEADOUT 56:17:49
